<svg width="110" height="43" viewBox="0 0 110 43" fill="none" xmlns="http://www.w3.org/2000/svg">
<path d="M12.57 37.4C10.85 37.4 9.17 35.89 7.53 32.87C6.19 30.39 4.97 27.34 3.87 23.72C2.79 20.1 1.72 15.97 0.66 11.33L6.09 10.61C6.65 13.29 7.26 15.87 7.92 18.35C8.6 20.81 9.29 23.04 9.99 25.04C10.71 27.02 11.4 28.64 12.06 29.9C12.22 30.22 12.37 30.49 12.51 30.71C12.67 30.91 12.77 31.01 12.81 31.01C12.89 31.01 12.99 30.92 13.11 30.74C13.25 30.56 13.44 30.24 13.68 29.78C14.36 28.56 15.09 26.97 15.87 25.01C16.67 23.05 17.48 20.83 18.3 18.35C19.12 15.87 19.89 13.26 20.61 10.52L25.95 11.51C25.05 14.69 24.13 17.64 23.19 20.36C22.25 23.06 21.33 25.47 20.43 27.59C19.53 29.69 18.7 31.45 17.94 32.87C16.32 35.89 14.53 37.4 12.57 37.4ZM27.9809 15.62C27.9809 15.44 27.9709 15.26 27.9509 15.08C27.9509 14.88 27.9509 14.66 27.9509 14.42C27.9509 13.78 27.9709 13.1 28.0109 12.38C28.0509 11.66 28.0909 11.05 28.1309 10.55L33.4709 10.64C33.4109 11.32 33.3409 12.09 33.2609 12.95C33.2009 13.81 33.1609 14.7 33.1409 15.62H27.9809ZM27.8609 37.1C27.8009 35.86 27.7609 34.54 27.7409 33.14C27.7209 31.72 27.7109 30.3 27.7109 28.88C27.7109 27.02 27.7309 25.21 27.7709 23.45C27.8109 21.69 27.8609 20.09 27.9209 18.65L33.0809 18.62C33.0009 19.54 32.9509 20.68 32.9309 22.04C32.9109 23.38 32.9009 24.79 32.9009 26.27C32.9009 27.73 32.9109 29.17 32.9309 30.59C32.9509 32.01 32.9709 33.3 32.9909 34.46C33.0309 35.6 33.0609 36.48 33.0809 37.1H27.8609ZM43.511 37.37C42.011 37.37 40.651 36.98 39.431 36.2C38.211 35.44 37.241 34.41 36.521 33.11C35.821 31.79 35.471 30.32 35.471 28.7C35.471 27.18 35.751 25.81 36.311 24.59C36.871 23.35 37.631 22.29 38.591 21.41C39.571 20.53 40.681 19.86 41.921 19.4C43.161 18.92 44.461 18.68 45.821 18.68C46.961 18.68 48.081 18.84 49.181 19.16C49.261 18.74 49.331 18.32 49.391 17.9L54.521 18.77C54.381 19.15 54.241 19.72 54.101 20.48C53.961 21.24 53.841 22.09 53.741 23.03C53.661 23.97 53.591 24.91 53.531 25.85C53.471 26.79 53.441 27.64 53.441 28.4C53.441 29.02 53.481 29.63 53.561 30.23C53.661 30.81 53.861 31.29 54.161 31.67C54.461 32.03 54.921 32.21 55.541 32.21H55.961L55.211 37.43C53.891 37.43 52.801 37.2 51.941 36.74C51.081 36.3 50.391 35.7 49.871 34.94C49.011 35.9 48.031 36.54 46.931 36.86C45.831 37.2 44.691 37.37 43.511 37.37ZM40.391 29.3C40.491 30.26 40.881 31.03 41.561 31.61C42.261 32.17 43.141 32.45 44.201 32.45C45.221 32.45 46.071 32.18 46.751 31.64C47.431 31.08 47.991 30.32 48.431 29.36C48.411 29.04 48.401 28.71 48.401 28.37C48.401 27.67 48.421 26.95 48.461 26.21C48.501 25.47 48.551 24.74 48.611 24.02C47.771 23.7 46.891 23.54 45.971 23.54C44.891 23.54 43.921 23.76 43.061 24.2C42.221 24.62 41.561 25.21 41.081 25.97C40.601 26.73 40.361 27.61 40.361 28.61C40.361 28.73 40.361 28.85 40.361 28.97C40.361 29.09 40.371 29.2 40.391 29.3ZM66.8365 37.37C65.6365 37.37 64.6865 37.11 63.9865 36.59C63.2865 36.09 62.7765 35.39 62.4565 34.49C62.1365 33.59 61.9265 32.56 61.8265 31.4C61.7465 30.24 61.7065 29.02 61.7065 27.74C61.7065 26.42 61.7565 25.05 61.8565 23.63C60.5165 23.81 59.2265 24.04 57.9865 24.32L57.0565 19.61C58.7165 19.17 60.4865 18.85 62.3665 18.65C62.5065 17.63 62.6565 16.56 62.8165 15.44C62.9765 14.3 63.1565 13.1 63.3565 11.84L68.5165 12.29C68.2765 13.33 68.0665 14.37 67.8865 15.41C67.7065 16.43 67.5465 17.42 67.4065 18.38C68.5265 18.38 69.5765 18.41 70.5565 18.47C71.5565 18.51 72.4765 18.59 73.3165 18.71L72.7165 23.42C72.0165 23.34 71.2865 23.29 70.5265 23.27C69.7865 23.23 69.0365 23.21 68.2765 23.21C67.8165 23.21 67.3565 23.22 66.8965 23.24C66.7765 24.7 66.6965 25.95 66.6565 26.99C66.6365 28.03 66.6265 28.77 66.6265 29.21C66.6265 30.31 66.6865 31.1 66.8065 31.58C66.9465 32.06 67.1665 32.3 67.4665 32.3C67.8065 32.3 68.1865 32.19 68.6065 31.97C69.0265 31.73 69.4365 31.41 69.8365 31.01C70.2565 30.61 70.6065 30.18 70.8865 29.72L73.1965 34.55C71.2165 36.43 69.0965 37.37 66.8365 37.37ZM82.1039 37.46C80.8239 37.46 79.7639 37.23 78.9239 36.77C78.1039 36.33 77.4439 35.72 76.9439 34.94C76.4639 34.16 76.1039 33.29 75.8639 32.33C75.6439 31.35 75.4939 30.34 75.4139 29.3C75.3539 28.24 75.3239 27.22 75.3239 26.24C75.3239 25.12 75.3539 23.98 75.4139 22.82C75.4939 21.66 75.5739 20.39 75.6539 19.01L81.1439 18.68C81.0839 19.1 80.9939 19.73 80.8739 20.57C80.7539 21.41 80.6439 22.37 80.5439 23.45C80.4439 24.53 80.3939 25.66 80.3939 26.84C80.3939 28.78 80.5639 30.22 80.9039 31.16C81.2439 32.08 81.7539 32.54 82.4339 32.54C83.7939 32.54 84.7939 31.55 85.4339 29.57C86.0739 27.59 86.3939 24.46 86.3939 20.18V18.8L88.9439 18.74L92.0339 18.68C91.7539 20.56 91.5439 22.29 91.4039 23.87C91.2639 25.45 91.1739 26.78 91.1339 27.86C91.0939 28.92 91.0739 29.63 91.0739 29.99C91.0739 30.91 91.1539 31.57 91.3139 31.97C91.4739 32.35 91.7539 32.54 92.1539 32.54C92.3539 32.54 92.5739 32.5 92.8139 32.42C93.0539 32.34 93.3339 32.2 93.6539 32L93.4439 37.16C92.6839 37.28 92.0239 37.34 91.4639 37.34C90.5039 37.34 89.7139 37.16 89.0939 36.8C88.4939 36.44 88.0139 35.96 87.6539 35.36C87.0339 36.02 86.2639 36.53 85.3439 36.89C84.4439 37.27 83.3639 37.46 82.1039 37.46ZM96.0075 37.34C96.0875 35.68 96.1475 34.02 96.1875 32.36C96.2275 30.7 96.2475 29.06 96.2475 27.44C96.2275 25.96 96.1975 24.5 96.1575 23.06C96.1375 21.6 96.0875 20.19 96.0075 18.83L101.048 18.68C101.068 19.42 101.098 20.18 101.138 20.96C101.778 20.16 102.518 19.52 103.358 19.04C104.218 18.54 105.198 18.29 106.298 18.29C106.718 18.29 107.258 18.35 107.918 18.47C108.578 18.59 109.248 18.82 109.928 19.16L109.358 24.23C108.858 23.93 108.318 23.72 107.738 23.6C107.178 23.46 106.708 23.39 106.328 23.39C105.048 23.39 103.958 23.97 103.058 25.13C102.178 26.27 101.578 27.86 101.258 29.9C101.258 31.3 101.238 32.64 101.198 33.92C101.178 35.18 101.128 36.32 101.048 37.34H96.0075Z" fill="#04422C"/>
<circle cx="32" cy="10" r="7" fill="#30A55C"/>
</svg>
